<svg xmlns="http://www.w3.org/2000/svg" xmlns:xlink="http://www.w3.org/1999/xlink" width="1080" zoomAndPan="magnify" viewBox="0 0 810 266.999984" height="356" preserveAspectRatio="xMidYMid meet" version="1.0"><defs><clipPath id="b127f66ce9"><path d="M 565.835938 42.289062 L 810 42.289062 L 810 267 L 565.835938 267 Z M 565.835938 42.289062 " clip-rule="nonzero"/></clipPath><clipPath id="91c4a29d16"><path d="M 364.847656 27.054688 L 743 27.054688 L 743 257 L 364.847656 257 Z M 364.847656 27.054688 " clip-rule="nonzero"/></clipPath><clipPath id="579f7f6726"><path d="M 81.199219 42.039062 L 459.957031 42.039062 L 459.957031 267 L 81.199219 267 Z M 81.199219 42.039062 " clip-rule="nonzero"/></clipPath><clipPath id="ea0982ae23"><path d="M 0 27.054688 L 259.355469 27.054688 L 259.355469 257 L 0 257 Z M 0 27.054688 " clip-rule="nonzero"/></clipPath><clipPath id="fb66aad37a"><path d="M 0 42.039062 L 264.328125 42.039062 L 264.328125 267 L 0 267 Z M 0 42.039062 " clip-rule="nonzero"/></clipPath><clipPath id="7e03d6f782"><path d="M 90 57 L 469 57 L 469 267 L 90 267 Z M 90 57 " clip-rule="nonzero"/></clipPath><clipPath id="5baafbe348"><path d="M 86.980469 61.773438 L 465.597656 51.320312 L 471.941406 281.414062 L 93.324219 291.867188 Z M 86.980469 61.773438 " clip-rule="nonzero"/></clipPath><clipPath id="baf7a2c5be"><path d="M 86.980469 61.773438 L 465.597656 51.320312 L 471.941406 281.414062 L 93.324219 291.867188 Z M 86.980469 61.773438 " clip-rule="nonzero"/></clipPath><clipPath id="ca2784b231"><path d="M 379.234375 40 L 757.703125 40 L 757.703125 267 L 379.234375 267 Z M 379.234375 40 " clip-rule="nonzero"/></clipPath><clipPath id="fcb8ca2eae"><path d="M 578.058594 50 L 810 50 L 810 267 L 578.058594 267 Z M 578.058594 50 " clip-rule="nonzero"/></clipPath><clipPath id="bd8904f042"><path d="M 379.234375 56.511719 L 757.703125 56.511719 L 757.703125 267 L 379.234375 267 Z M 379.234375 56.511719 " clip-rule="nonzero"/></clipPath><clipPath id="154e127a1e"><path d="M 0 155.378906 L 810 155.378906 L 810 267 L 0 267 Z M 0 155.378906 " clip-rule="nonzero"/></clipPath></defs><g clip-path="url(#b127f66ce9)"><path fill="#bcd0df" d="M 890.457031 115.078125 C 883.320312 115.078125 876.546875 116.480469 870.308594 119 C 864.40625 95.882812 843.421875 78.78125 818.460938 78.78125 C 807.742188 78.78125 797.75 81.945312 789.386719 87.375 C 779.8125 61.007812 754.515625 42.144531 724.828125 42.144531 C 688.230469 42.144531 658.316406 70.773438 656.273438 106.878906 C 649.449219 104.585938 642.144531 103.351562 634.53125 103.351562 C 596.589844 103.351562 565.835938 134.113281 565.835938 172.035156 C 565.835938 209.957031 596.589844 240.722656 634.503906 240.722656 C 644.6875 240.722656 654.347656 238.476562 663.019531 234.507812 C 677.089844 256.78125 701.917969 271.621094 730.207031 271.621094 C 755.300781 271.621094 777.6875 259.949219 792.238281 241.757812 C 800.160156 249.621094 811.046875 254.460938 823.070312 254.460938 C 845.324219 254.460938 863.644531 237.894531 866.472656 216.421875 C 873.695312 220.035156 881.835938 222.101562 890.457031 222.101562 C 920.007812 222.101562 943.960938 198.144531 943.960938 168.589844 C 943.960938 139.035156 920.007812 115.078125 890.457031 115.078125 Z M 890.457031 115.078125 " fill-opacity="1" fill-rule="nonzero"/></g><g clip-path="url(#91c4a29d16)"><path fill="#bcd0df" d="M 689.464844 100.089844 C 682.335938 100.089844 675.5625 101.488281 669.316406 104.007812 C 663.410156 80.894531 642.429688 63.792969 617.464844 63.792969 C 606.75 63.792969 596.757812 66.953125 588.394531 72.386719 C 578.828125 46.015625 553.53125 27.15625 523.84375 27.15625 C 487.238281 27.15625 457.332031 55.785156 455.289062 91.886719 C 448.457031 89.59375 441.152344 88.367188 433.546875 88.367188 C 395.597656 88.367188 364.847656 119.125 364.847656 157.046875 C 364.847656 194.96875 395.597656 225.730469 433.511719 225.730469 C 443.703125 225.730469 453.351562 223.488281 462.027344 219.515625 C 476.105469 241.796875 500.925781 256.628906 529.214844 256.628906 C 554.316406 256.628906 576.699219 244.960938 591.253906 226.765625 C 599.167969 234.632812 610.050781 239.46875 622.085938 239.46875 C 644.328125 239.46875 662.660156 222.902344 665.488281 201.433594 C 672.703125 205.042969 680.851562 207.121094 689.464844 207.121094 C 719.015625 207.121094 742.964844 183.164062 742.964844 153.609375 C 742.964844 124.046875 719.015625 100.089844 689.464844 100.089844 Z M 689.464844 100.089844 " fill-opacity="1" fill-rule="nonzero"/></g><g clip-path="url(#579f7f6726)"><path fill="#bcd0df" d="M 405.816406 115.078125 C 398.683594 115.078125 391.914062 116.480469 385.664062 119 C 379.769531 95.882812 358.777344 78.78125 333.816406 78.78125 C 323.097656 78.78125 313.117188 81.945312 304.742188 87.375 C 295.175781 61.007812 269.882812 42.144531 240.191406 42.144531 C 203.589844 42.144531 173.679688 70.773438 171.636719 106.878906 C 164.808594 104.585938 157.5 103.351562 149.894531 103.351562 C 111.949219 103.351562 81.199219 134.113281 81.199219 172.035156 C 81.199219 209.957031 111.949219 240.722656 149.863281 240.722656 C 160.054688 240.722656 169.703125 238.476562 178.375 234.507812 C 192.453125 256.78125 217.273438 271.621094 245.5625 271.621094 C 270.667969 271.621094 293.050781 259.949219 307.605469 241.757812 C 315.519531 249.621094 326.402344 254.460938 338.4375 254.460938 C 360.679688 254.460938 379.011719 237.894531 381.835938 216.421875 C 389.050781 220.035156 397.199219 222.101562 405.816406 222.101562 C 435.363281 222.101562 459.316406 198.144531 459.316406 168.589844 C 459.316406 139.035156 435.363281 115.078125 405.816406 115.078125 Z M 405.816406 115.078125 " fill-opacity="1" fill-rule="nonzero"/></g><g clip-path="url(#ea0982ae23)"><path fill="#bcd0df" d="M 205.523438 100.089844 C 198.382812 100.089844 191.613281 101.488281 185.375 104.007812 C 179.46875 80.894531 158.484375 63.792969 133.523438 63.792969 C 122.808594 63.792969 112.816406 66.953125 104.449219 72.386719 C 94.875 46.015625 69.582031 27.15625 39.890625 27.15625 C 3.296875 27.15625 -26.621094 55.785156 -28.664062 91.886719 C -35.484375 89.59375 -42.792969 88.367188 -50.40625 88.367188 C -88.34375 88.367188 -119.101562 119.125 -119.101562 157.046875 C -119.101562 194.96875 -88.34375 225.730469 -50.429688 225.730469 C -40.246094 225.730469 -30.589844 223.488281 -21.917969 219.515625 C -7.847656 241.796875 16.972656 256.628906 45.269531 256.628906 C 70.367188 256.628906 92.75 244.960938 107.304688 226.765625 C 115.21875 234.632812 126.109375 239.46875 138.136719 239.46875 C 160.386719 239.46875 178.710938 222.902344 181.535156 201.433594 C 188.757812 205.042969 196.898438 207.121094 205.523438 207.121094 C 235.070312 207.121094 259.023438 183.164062 259.023438 153.609375 C 259.023438 124.046875 235.070312 100.089844 205.523438 100.089844 Z M 205.523438 100.089844 " fill-opacity="1" fill-rule="nonzero"/></g><g clip-path="url(#fb66aad37a)"><path fill="#104d7e" d="M 211.976562 114.402344 C 204.914062 114.402344 198.199219 115.796875 192.019531 118.289062 C 186.175781 95.382812 165.382812 78.441406 140.644531 78.441406 C 130.03125 78.441406 120.136719 81.578125 111.847656 86.949219 C 102.367188 60.832031 77.304688 42.144531 47.890625 42.144531 C 11.628906 42.144531 -18.011719 70.507812 -20.03125 106.277344 C -26.796875 104.007812 -34.035156 102.789062 -41.574219 102.789062 C -79.171875 102.789062 -109.636719 133.261719 -109.636719 170.835938 C -109.636719 208.40625 -79.171875 238.878906 -41.597656 238.878906 C -31.507812 238.878906 -21.949219 236.660156 -13.351562 232.722656 C 0.59375 254.792969 25.179688 269.492188 53.210938 269.492188 C 78.078125 269.492188 100.253906 257.929688 114.675781 239.90625 C 122.515625 247.695312 133.308594 252.5 145.226562 252.5 C 167.265625 252.5 185.421875 236.082031 188.226562 214.8125 C 195.375 218.390625 203.445312 220.441406 211.976562 220.441406 C 241.257812 220.441406 264.988281 196.703125 264.988281 167.421875 C 264.988281 138.144531 241.257812 114.402344 211.976562 114.402344 Z M 211.976562 114.402344 " fill-opacity="1" fill-rule="nonzero"/></g><g clip-path="url(#7e03d6f782)"><g clip-path="url(#5baafbe348)"><g clip-path="url(#baf7a2c5be)"><path fill="#104d7e" d="M 413.488281 125.832031 C 406.355469 126.023438 399.628906 127.609375 393.457031 130.300781 C 386.917969 107.355469 365.464844 90.835938 340.511719 91.53125 C 329.804688 91.820312 319.90625 95.257812 311.691406 100.921875 C 301.398438 74.828125 275.585938 56.667969 245.914062 57.488281 C 209.324219 58.496094 180.21875 87.941406 179.167969 124.09375 C 172.28125 121.984375 164.949219 120.960938 157.335938 121.167969 C 119.414062 122.21875 89.515625 153.808594 90.566406 191.722656 C 91.605469 229.628906 123.199219 259.523438 161.105469 258.480469 C 171.277344 258.199219 180.871094 255.695312 189.433594 251.484375 C 204.113281 273.363281 229.332031 287.511719 257.613281 286.726562 C 282.699219 286.035156 304.761719 273.746094 318.804688 255.160156 C 326.9375 262.800781 337.953125 267.347656 349.980469 267.015625 C 372.214844 266.398438 390.078125 249.332031 392.3125 227.792969 C 399.628906 231.203125 407.824219 233.046875 416.441406 232.8125 C 445.980469 231.996094 469.257812 207.386719 468.449219 177.839844 C 467.632812 148.296875 443.027344 125.011719 413.488281 125.832031 Z M 413.488281 125.832031 " fill-opacity="1" fill-rule="nonzero"/></g></g></g><g clip-path="url(#ca2784b231)"><path fill="#104d7e" d="M 703.859375 112.96875 C 696.722656 112.96875 689.949219 114.359375 683.710938 116.878906 C 677.804688 93.765625 656.824219 76.664062 631.863281 76.664062 C 621.144531 76.664062 611.152344 79.824219 602.789062 85.257812 C 593.214844 58.886719 567.917969 40.027344 538.230469 40.027344 C 501.632812 40.027344 471.71875 68.65625 469.675781 104.769531 C 462.851562 102.464844 455.546875 101.238281 447.933594 101.238281 C 409.992188 101.238281 379.234375 131.996094 379.234375 169.917969 C 379.234375 207.847656 409.992188 238.601562 447.90625 238.601562 C 458.089844 238.601562 467.746094 236.367188 476.421875 232.386719 C 490.492188 254.667969 515.3125 269.5 543.609375 269.5 C 568.703125 269.5 591.085938 257.832031 605.640625 239.636719 C 613.554688 247.503906 624.445312 252.34375 636.472656 252.34375 C 658.722656 252.34375 677.046875 235.773438 679.875 214.3125 C 687.097656 217.925781 695.238281 219.992188 703.859375 219.992188 C 733.410156 219.992188 757.359375 196.035156 757.359375 166.480469 C 757.359375 136.925781 733.410156 112.96875 703.859375 112.96875 Z M 703.859375 112.96875 " fill-opacity="1" fill-rule="nonzero"/></g><g clip-path="url(#fcb8ca2eae)"><path fill="#104d7e" d="M 886.914062 119.492188 C 880.125 119.492188 873.6875 120.816406 867.75 123.210938 C 862.128906 101.222656 842.160156 84.949219 818.417969 84.949219 C 808.21875 84.949219 798.710938 87.960938 790.753906 93.121094 C 781.648438 68.039062 757.578125 50.085938 729.332031 50.085938 C 694.511719 50.085938 666.046875 77.332031 664.105469 111.683594 C 657.605469 109.496094 650.660156 108.328125 643.421875 108.328125 C 607.316406 108.328125 578.058594 137.59375 578.058594 173.679688 C 578.058594 209.757812 607.316406 239.027344 643.394531 239.027344 C 653.085938 239.027344 662.269531 236.894531 670.527344 233.113281 C 683.910156 254.3125 707.53125 268.425781 734.441406 268.425781 C 758.328125 268.425781 779.628906 257.320312 793.472656 240.011719 C 801.003906 247.496094 811.363281 252.101562 822.804688 252.101562 C 843.972656 252.101562 861.410156 236.335938 864.105469 215.914062 C 870.96875 219.351562 878.714844 221.320312 886.914062 221.320312 C 915.027344 221.320312 937.820312 198.519531 937.820312 170.402344 C 937.820312 142.28125 915.027344 119.492188 886.914062 119.492188 Z M 886.914062 119.492188 " fill-opacity="1" fill-rule="nonzero"/></g><g clip-path="url(#bd8904f042)"><path fill="#104d7e" d="M 703.859375 129.550781 C 696.722656 129.550781 689.949219 130.953125 683.710938 133.472656 C 677.804688 110.355469 656.824219 93.257812 631.863281 93.257812 C 621.144531 93.257812 611.152344 96.417969 602.789062 101.847656 C 593.214844 75.480469 567.917969 56.617188 538.230469 56.617188 C 501.632812 56.617188 471.71875 85.246094 469.675781 121.351562 C 462.851562 119.058594 455.546875 117.824219 447.933594 117.824219 C 409.992188 117.824219 379.234375 148.585938 379.234375 186.507812 C 379.234375 224.429688 409.992188 255.195312 447.90625 255.195312 C 458.089844 255.195312 467.746094 252.949219 476.421875 248.980469 C 490.492188 271.253906 515.3125 286.09375 543.609375 286.09375 C 568.703125 286.09375 591.085938 274.421875 605.640625 256.230469 C 613.554688 264.09375 624.445312 268.933594 636.472656 268.933594 C 658.722656 268.933594 677.046875 252.367188 679.875 230.894531 C 687.097656 234.507812 695.238281 236.574219 703.859375 236.574219 C 733.410156 236.574219 757.359375 212.617188 757.359375 183.0625 C 757.359375 153.507812 733.410156 129.550781 703.859375 129.550781 Z M 703.859375 129.550781 " fill-opacity="1" fill-rule="nonzero"/></g><g clip-path="url(#154e127a1e)"><path fill="#104d7e" d="M -4.484375 155.378906 L 811.5625 155.378906 L 811.5625 295.242188 L -4.484375 295.242188 Z M -4.484375 155.378906 " fill-opacity="1" fill-rule="nonzero"/></g></svg>