<svg width="50" height="50" viewBox="0 0 50 50" fill="none" xmlns="http://www.w3.org/2000/svg">
<g clip-path="url(#clip0_4019_410)">
<path d="M37.5488 2.78318C37.5 2.80272 37.3242 2.84178 37.1777 2.87107C36.8066 2.95897 36.0449 3.67186 35.8301 4.15037C35.7031 4.42381 35.6445 4.77537 35.6445 5.34178C35.6445 6.49412 35.5566 6.55272 34.6094 6.05467C33.9453 5.70311 33.8086 5.66404 33.1445 5.66404C31.9629 5.66404 31.4355 5.98631 30.791 7.08006C30.6055 7.40232 30.4297 7.68553 30.4004 7.71482C30.3809 7.74412 28.2422 7.78318 25.6641 7.81248L20.9766 7.86131L20.752 8.13475C20.3125 8.63279 20.3125 9.38475 20.752 9.8242L20.9863 10.0586H24.8926C27.041 10.0586 28.8574 10.0879 28.9453 10.1172C29.0625 10.166 29.1016 10.3125 29.1016 10.7324C29.1016 11.0351 29.1504 11.4355 29.1992 11.6308C29.3359 12.1094 29.8828 12.7246 30.5566 13.1347C31.3477 13.6035 31.3574 13.7109 30.6934 14.082C30.3906 14.248 30 14.541 29.8242 14.7168C29.2578 15.2734 29.1504 15.5762 29.1504 16.5527V17.4414L30.0195 18.9453C30.8789 20.459 31.4355 21.1621 31.9824 21.4648C32.1875 21.5722 32.5293 21.6211 33.1055 21.6211C33.8965 21.6308 33.9746 21.6113 34.6387 21.2402C35.5371 20.7422 35.5762 20.7812 35.6445 22.0703C35.6934 22.9394 35.7227 23.0762 35.9961 23.457C36.4551 24.1113 36.9727 24.4238 37.7441 24.5019C38.1445 24.5508 38.4277 24.6289 38.4863 24.7168C38.5352 24.7949 38.5645 26.4355 38.5449 28.5644L38.5254 32.2754L20.4395 32.3047C4.10156 32.3242 2.34375 32.3144 2.20703 32.168C2.07031 32.0312 2.05078 30.9472 2.05078 21.5527C2.05078 14.9512 2.08984 10.957 2.14844 10.7324C2.33398 10.0488 2.27539 10.0586 8.13477 10.0586H13.3398L13.6035 9.78514C13.8281 9.55076 13.8672 9.42381 13.8672 8.94529C13.8672 8.30076 13.623 7.96873 13.0762 7.86131C12.8906 7.83201 10.3027 7.81248 7.32422 7.83201C3.21289 7.85154 1.83594 7.89061 1.62109 7.98826C1.12305 8.20311 0.585938 8.70115 0.292969 9.21873L0 9.71678V23.8281V37.9394L0.322266 38.3496C0.498047 38.5742 0.78125 38.8672 0.947266 39.0039C1.60156 39.5605 1.50391 39.5508 8.70117 39.5508C16.1914 39.5508 15.6738 39.4922 15.5762 40.3125C15.5371 40.5664 15.4395 41.4355 15.3418 42.2558C15.1465 43.8769 15.0098 44.2285 14.4629 44.5996C13.9941 44.9121 13.5449 45.0195 12.627 45.0195C11.9434 45.0195 11.7871 45.0488 11.6211 45.2148C11.1426 45.6933 11.0938 46.4258 11.5137 46.8945L11.7969 47.2168L20.6836 47.2461C26.2598 47.2558 29.6582 47.2363 29.8145 47.1777C30.1855 47.0312 30.4004 46.6308 30.4102 46.0937C30.4199 45.6933 30.3711 45.5664 30.1367 45.3222C29.8633 45.0293 29.8145 45.0195 29.0625 45.0195C28.1543 45.0195 27.6953 44.9121 27.2461 44.5996C26.6895 44.2285 26.5527 43.8086 26.2891 41.7285C26.1621 40.6836 26.084 39.7656 26.1133 39.6875C26.1621 39.5703 27.0508 39.5508 32.3828 39.5508C36.8652 39.5508 38.7109 39.5215 38.9844 39.4336C39.4727 39.2871 40.166 38.6816 40.5078 38.1055L40.7715 37.6465L40.8203 31.1035L40.8691 24.5605L41.1621 24.5312C42.1484 24.4531 42.3047 24.3945 42.7441 23.9941C43.3789 23.4082 43.5742 22.9687 43.6328 21.9531C43.6621 21.4258 43.7305 21.0547 43.8086 20.9863C43.8965 20.9082 44.1016 20.9765 44.5801 21.2304C45.3418 21.6308 46.0449 21.748 46.8066 21.582C47.627 21.416 47.9883 21.0254 49.0723 19.1406L50 17.539V16.4355V15.332L49.4922 14.8144C49.209 14.541 48.7695 14.1894 48.5156 14.0429C48.252 13.8965 48.0469 13.7109 48.0469 13.6328C48.0469 13.5547 48.252 13.3789 48.5156 13.2324C49.0625 12.9101 49.668 12.3535 49.8633 11.9922C49.9512 11.8164 50 11.3965 50 10.7031V9.68748L49.1602 8.2324C47.8613 5.98631 47.3633 5.59568 45.9277 5.68357C45.3027 5.72264 45.0586 5.791 44.5703 6.06443C43.7891 6.49412 43.6523 6.40623 43.6523 5.49803C43.6523 4.4824 43.4863 4.02342 42.9297 3.45701C42.2559 2.79295 41.9727 2.73436 39.5801 2.74412C38.5156 2.74412 37.6074 2.76365 37.5488 2.78318ZM41.2109 5.17576C41.377 5.34178 41.4062 5.49803 41.4062 6.14256C41.4062 7.08982 41.4746 7.2949 42.0117 7.87107C42.5977 8.50584 43.0371 8.69139 44.0039 8.69139C44.7266 8.69139 44.8535 8.66209 45.4395 8.34959C45.791 8.16404 46.123 8.00779 46.1621 8.00779C46.2207 8.00779 47.4512 10.039 47.8223 10.7617C47.8418 10.8008 47.6172 10.9668 47.3242 11.1328C46.6699 11.5039 46.0645 12.1484 45.8887 12.6562C45.8105 12.8613 45.7617 13.3691 45.7617 13.7695C45.7617 14.8535 46.1133 15.4297 47.168 16.0644C47.9199 16.5137 47.9199 16.4648 47.0898 17.9004C46.6797 18.6133 46.2988 19.2187 46.25 19.2578C46.2012 19.2871 45.8496 19.1601 45.4688 18.9648C44.834 18.6328 44.7266 18.6035 43.9551 18.6035C43.2129 18.6035 43.0566 18.6328 42.6562 18.8769C41.7773 19.3847 41.4062 20.1074 41.4062 21.2793C41.4062 21.9531 41.377 22.0801 41.2207 22.1679C40.9863 22.2949 38.2812 22.2949 38.0859 22.1679C37.9883 22.1094 37.9297 21.8066 37.8809 21.1621C37.8027 20.0781 37.6758 19.8047 37.0117 19.209C36.1426 18.4277 34.9121 18.3398 33.7598 18.9746C33.418 19.1601 33.0957 19.2871 33.0371 19.2578C32.9102 19.1699 31.4453 16.6504 31.4453 16.5137C31.4453 16.4551 31.6211 16.3183 31.8359 16.2109C32.4414 15.8984 33.0176 15.332 33.2617 14.7949C33.5156 14.2578 33.5742 13.3203 33.3984 12.6855C33.2617 12.1972 32.7051 11.5918 32.0703 11.2207C31.7676 11.0547 31.5039 10.8594 31.4844 10.791C31.416 10.6347 32.9102 8.00779 33.0664 8.00779C33.125 8.00779 33.4668 8.16404 33.8281 8.34959C34.4043 8.64256 34.5801 8.69139 35.1758 8.69139C36.1426 8.69139 36.5723 8.53514 37.1191 7.98826C37.6758 7.43162 37.8906 6.83592 37.8906 5.84959C37.8906 5.32225 37.9297 5.166 38.0664 5.08787C38.1543 5.02928 38.8574 4.98045 39.6289 4.98045C40.8887 4.98045 41.0352 4.99998 41.2109 5.17576ZM38.418 34.7265C38.5449 34.8437 38.5742 35.0976 38.5742 35.8984V36.914L38.2617 37.1094C37.9395 37.3047 37.7148 37.3047 20.332 37.3047C7.90039 37.3047 2.66602 37.2754 2.51953 37.1972C2.19727 37.0215 2.05078 36.5039 2.05078 35.5664C2.05078 35.0879 2.08008 34.668 2.11914 34.6387C2.14844 34.5996 10.3027 34.5703 20.2246 34.5703C36.4941 34.5703 38.2812 34.5898 38.418 34.7265ZM23.6621 39.7656C23.7402 39.9023 23.8965 40.8496 24.0234 42.041C24.1504 43.1738 24.2969 44.2773 24.3652 44.5019C24.4336 44.7265 24.4629 44.9316 24.4336 44.9609C24.3652 45.039 17.6855 45.0293 17.4219 44.9609C17.2266 44.9121 17.2266 44.8828 17.3438 44.3555C17.4023 44.0527 17.5586 42.9004 17.6855 41.7969C17.8027 40.6933 17.9492 39.7363 17.998 39.668C18.0664 39.5801 18.75 39.5508 20.8105 39.5508C23.5254 39.5508 23.5352 39.5508 23.6621 39.7656Z" fill="white"/>
<path d="M38.1152 9.6484C37.0898 10.0097 36.3281 10.7324 35.8008 11.8164C35.5078 12.4316 35.498 12.5 35.498 13.7207C35.498 14.873 35.5176 15.039 35.7324 15.4785C36.1035 16.2304 37.2266 17.3047 37.9395 17.5781C38.7109 17.8808 40.4004 17.9101 41.1621 17.6367C43.0957 16.9433 44.248 14.6093 43.7109 12.5C43.418 11.3672 42.5098 10.2929 41.4258 9.78512C40.9473 9.56051 40.7227 9.52145 39.7461 9.50192C38.8477 9.47262 38.5254 9.50192 38.1152 9.6484ZM40.3906 11.9531C40.9375 12.207 41.2305 12.5488 41.4648 13.2031C41.6309 13.6914 41.582 14.0429 41.25 14.6191C40.9375 15.1562 39.9414 15.6836 39.4336 15.5761C39.0137 15.4785 38.4668 15.205 38.2715 14.9804C37.3633 13.9453 37.5977 12.5683 38.7793 11.9726C39.4141 11.6601 39.7461 11.6504 40.3906 11.9531Z" fill="white"/>
<path d="M16.6992 7.91992C16.2891 8.08594 16.1133 8.39844 16.1133 8.97461C16.1133 9.42383 16.1523 9.55078 16.377 9.78516C16.6016 10.0195 16.709 10.0586 17.1875 10.0586C17.666 10.0586 17.7734 10.0195 18.0176 9.76562C18.2422 9.53125 18.3008 9.38477 18.3008 8.98438C18.3105 8.56445 18.2715 8.45703 18.0078 8.19336C17.6758 7.86133 17.1191 7.74414 16.6992 7.91992Z" fill="white"/>
<path d="M7.28516 13.4473C5.20508 15.6055 5.17578 15.6543 5.17578 16.2402V16.7578L6.80664 18.4863L8.4375 20.2148H9.04297C9.59961 20.2148 9.66797 20.1953 9.90234 19.9121C10.1074 19.6777 10.1562 19.5117 10.1562 19.1016V18.584L9.01367 17.3926L7.88086 16.2012L8.75977 15.3027C10.0781 13.9453 10.1562 13.8379 10.1562 13.252C10.1562 12.8418 10.1074 12.7051 9.89258 12.4805C9.66797 12.2461 9.56055 12.207 9.0625 12.207H8.48633L7.28516 13.4473Z" fill="white"/>
<path d="M15.6055 12.4707C15.4688 12.627 14.5312 14.0723 13.5352 15.6934C11.7871 18.5352 11.7188 18.6719 11.7188 19.1602C11.7188 19.5801 11.7676 19.7168 11.9824 19.9414C12.207 20.1758 12.3145 20.2148 12.793 20.2148C13.2617 20.2148 13.3789 20.1758 13.5938 19.9414C13.7988 19.7266 17.0117 14.5801 17.373 13.8965C17.4316 13.7793 17.4805 13.4766 17.4805 13.2227C17.4805 12.8516 17.4316 12.6953 17.2168 12.4805C16.9922 12.2461 16.8848 12.207 16.4062 12.207C15.9375 12.207 15.8203 12.2461 15.6055 12.4707Z" fill="white"/>
<path d="M19.1992 12.5098C18.9941 12.7539 18.9453 12.9102 18.9453 13.3398V13.877L20.0195 15C20.6152 15.625 21.0938 16.1719 21.0938 16.2207C21.0938 16.2695 20.6152 16.8164 20.0195 17.4316L18.9453 18.5547V19.1113C18.9453 19.5801 18.9844 19.707 19.209 19.9414C19.4336 20.1758 19.541 20.2148 20.0293 20.2148H20.5859L22.1875 18.5547C23.0566 17.6465 23.8086 16.8164 23.8477 16.7285C23.877 16.6309 23.916 16.3574 23.916 16.123C23.9258 15.6543 23.8965 15.625 21.543 13.2031L20.5566 12.207H20.0098C19.502 12.207 19.4238 12.2363 19.1992 12.5098Z" fill="white"/>
<path d="M5.42969 22.7637C5.22461 22.998 5.17578 23.1641 5.17578 23.5742C5.17578 24.0039 5.21484 24.1211 5.44922 24.3457L5.72266 24.6094L14.6973 24.5898L23.6719 24.5605L23.8965 24.2285C24.209 23.7598 24.1992 23.1543 23.8672 22.7637L23.6133 22.4609H14.6484H5.68359L5.42969 22.7637Z" fill="white"/>
<path d="M26.5235 22.7637C26.1524 23.1934 26.1622 23.9453 26.5333 24.3359C26.7579 24.5703 26.8653 24.6094 27.3633 24.6094C27.8516 24.6094 27.9688 24.5703 28.1739 24.3555C28.4766 24.0234 28.5645 23.457 28.3887 23.0176C28.2032 22.5781 27.9786 22.4609 27.3145 22.4609C26.836 22.4609 26.7481 22.4902 26.5235 22.7637Z" fill="white"/>
<path d="M5.50781 27.6758C5.21484 27.9688 5.17578 28.0664 5.17578 28.5352C5.17578 28.9844 5.21484 29.1016 5.44922 29.3262L5.72266 29.5898L12.3047 29.5703L18.8867 29.541L19.1113 29.209C19.2676 28.9746 19.3359 28.7305 19.3359 28.418C19.3359 28.0078 19.2969 27.9102 18.9941 27.6465L18.6426 27.3438H12.2461H5.83984L5.50781 27.6758Z" fill="white"/>
<path d="M22.6953 27.6758C22.4023 27.9688 22.3633 28.0664 22.3633 28.5254C22.3633 28.9551 22.4121 29.0918 22.627 29.3164L22.8906 29.5898H27.6465H32.4023L32.6562 29.2871C32.8613 29.0527 32.9102 28.8867 32.9102 28.4668C32.9102 27.998 32.8809 27.9199 32.5684 27.6465L32.2168 27.3438H27.627H23.0273L22.6953 27.6758Z" fill="white"/>
</g>
<defs>
<clipPath id="clip0_4019_410">
<rect width="50" height="50" fill="white"/>
</clipPath>
</defs>
</svg>
