<svg xmlns="http://www.w3.org/2000/svg" xmlns:xlink="http://www.w3.org/1999/xlink" width="500" zoomAndPan="magnify" viewBox="0 0 375 374.999991" height="500" preserveAspectRatio="xMidYMid meet" version="1.0"><defs><clipPath id="7d5cbe5c2a"><path d="M 267.65625 289.980469 L 375 289.980469 L 375 375 L 267.65625 375 Z M 267.65625 289.980469 " clip-rule="nonzero"/></clipPath><clipPath id="7ce1871e55"><path d="M 173.335938 282.832031 L 351 282.832031 L 351 375 L 173.335938 375 Z M 173.335938 282.832031 " clip-rule="nonzero"/></clipPath><clipPath id="144be16dad"><path d="M 40.21875 289.867188 L 217.96875 289.867188 L 217.96875 375 L 40.21875 375 Z M 40.21875 289.867188 " clip-rule="nonzero"/></clipPath><clipPath id="f42eec92c3"><path d="M 0.828125 282.832031 L 123.828125 282.832031 L 123.828125 375 L 0.828125 375 Z M 0.828125 282.832031 " clip-rule="nonzero"/></clipPath><clipPath id="d0735c8388"><path d="M 0 289.867188 L 126.160156 289.867188 L 126.160156 375 L 0 375 Z M 0 289.867188 " clip-rule="nonzero"/></clipPath><clipPath id="aac74aa1f7"><path d="M 44 297 L 222 297 L 222 375 L 44 375 Z M 44 297 " clip-rule="nonzero"/></clipPath><clipPath id="5d347aef5d"><path d="M 42.929688 299.125 L 220.613281 294.21875 L 223.59375 402.179688 L 45.910156 407.082031 Z M 42.929688 299.125 " clip-rule="nonzero"/></clipPath><clipPath id="20fd41791d"><path d="M 42.929688 299.125 L 220.613281 294.21875 L 223.59375 402.179688 L 45.910156 407.082031 Z M 42.929688 299.125 " clip-rule="nonzero"/></clipPath><clipPath id="deee4df34e"><path d="M 180.085938 288.875 L 357.835938 288.875 L 357.835938 375 L 180.085938 375 Z M 180.085938 288.875 " clip-rule="nonzero"/></clipPath><clipPath id="0acd3d7c1d"><path d="M 273.394531 293.601562 L 375 293.601562 L 375 375 L 273.394531 375 Z M 273.394531 293.601562 " clip-rule="nonzero"/></clipPath><clipPath id="096ea9603b"><path d="M 180.085938 296.65625 L 357.835938 296.65625 L 357.835938 375 L 180.085938 375 Z M 180.085938 296.65625 " clip-rule="nonzero"/></clipPath><clipPath id="29122ff950"><path d="M 0.0078125 343.042969 L 375 343.042969 L 375 375 L 0.0078125 375 Z M 0.0078125 343.042969 " clip-rule="nonzero"/></clipPath></defs><g clip-path="url(#7d5cbe5c2a)"><path fill="#bcd0df" d="M 420 324.136719 C 416.648438 324.136719 413.472656 324.792969 410.542969 325.972656 C 407.773438 315.128906 397.925781 307.105469 386.210938 307.105469 C 381.179688 307.105469 376.492188 308.585938 372.566406 311.136719 C 368.074219 298.765625 356.203125 289.914062 342.273438 289.914062 C 325.09375 289.914062 311.058594 303.347656 310.097656 320.289062 C 306.894531 319.210938 303.46875 318.632812 299.894531 318.632812 C 282.089844 318.632812 267.65625 333.066406 267.65625 350.859375 C 267.65625 368.652344 282.089844 383.085938 299.882812 383.085938 C 304.664062 383.085938 309.191406 382.035156 313.261719 380.167969 C 319.867188 390.621094 331.515625 397.582031 344.792969 397.582031 C 356.570312 397.582031 367.078125 392.105469 373.90625 383.570312 C 377.621094 387.261719 382.730469 389.53125 388.378906 389.53125 C 398.816406 389.53125 407.417969 381.757812 408.746094 371.6875 C 412.132812 373.378906 415.953125 374.351562 420 374.351562 C 433.867188 374.351562 445.105469 363.109375 445.105469 349.242188 C 445.105469 335.375 433.867188 324.136719 420 324.136719 Z M 420 324.136719 " fill-opacity="1" fill-rule="nonzero"/></g><g clip-path="url(#7ce1871e55)"><path fill="#bcd0df" d="M 325.675781 317.101562 C 322.328125 317.101562 319.148438 317.761719 316.222656 318.941406 C 313.449219 308.09375 303.601562 300.070312 291.886719 300.070312 C 286.859375 300.070312 282.171875 301.554688 278.242188 304.101562 C 273.753906 291.734375 261.882812 282.882812 247.949219 282.882812 C 230.773438 282.882812 216.734375 296.316406 215.777344 313.253906 C 212.570312 312.179688 209.144531 311.601562 205.574219 311.601562 C 187.765625 311.601562 173.335938 326.03125 173.335938 343.828125 C 173.335938 361.621094 187.765625 376.050781 205.558594 376.050781 C 210.339844 376.050781 214.871094 375 218.941406 373.136719 C 225.546875 383.589844 237.195312 390.550781 250.46875 390.550781 C 262.25 390.550781 272.753906 385.074219 279.582031 376.539062 C 283.300781 380.226562 288.40625 382.5 294.054688 382.5 C 304.496094 382.5 313.09375 374.726562 314.421875 364.652344 C 317.808594 366.347656 321.632812 367.320312 325.675781 367.320312 C 339.542969 367.320312 350.785156 356.078125 350.785156 342.210938 C 350.785156 328.34375 339.542969 317.101562 325.675781 317.101562 Z M 325.675781 317.101562 " fill-opacity="1" fill-rule="nonzero"/></g><g clip-path="url(#144be16dad)"><path fill="#bcd0df" d="M 192.558594 324.136719 C 189.210938 324.136719 186.035156 324.792969 183.105469 325.972656 C 180.335938 315.128906 170.484375 307.105469 158.773438 307.105469 C 153.742188 307.105469 149.054688 308.585938 145.128906 311.136719 C 140.636719 298.765625 128.765625 289.914062 114.832031 289.914062 C 97.65625 289.914062 83.621094 303.347656 82.660156 320.289062 C 79.457031 319.210938 76.027344 318.632812 72.457031 318.632812 C 54.652344 318.632812 40.21875 333.066406 40.21875 350.859375 C 40.21875 368.652344 54.652344 383.085938 72.445312 383.085938 C 77.222656 383.085938 81.753906 382.035156 85.824219 380.167969 C 92.429688 390.621094 104.078125 397.582031 117.355469 397.582031 C 129.132812 397.582031 139.640625 392.105469 146.46875 383.570312 C 150.183594 387.261719 155.292969 389.53125 160.9375 389.53125 C 171.378906 389.53125 179.980469 381.757812 181.304688 371.6875 C 184.695312 373.378906 188.515625 374.351562 192.558594 374.351562 C 206.425781 374.351562 217.667969 363.109375 217.667969 349.242188 C 217.667969 335.375 206.425781 324.136719 192.558594 324.136719 Z M 192.558594 324.136719 " fill-opacity="1" fill-rule="nonzero"/></g><g clip-path="url(#f42eec92c3)"><path fill="#bcd0df" d="M 98.5625 317.101562 C 95.214844 317.101562 92.035156 317.761719 89.105469 318.941406 C 86.335938 308.09375 76.488281 300.070312 64.773438 300.070312 C 59.746094 300.070312 55.054688 301.554688 51.128906 304.101562 C 46.640625 291.734375 34.769531 282.882812 20.835938 282.882812 C 3.660156 282.882812 -10.378906 296.316406 -11.335938 313.253906 C -14.542969 312.179688 -17.96875 311.601562 -21.542969 311.601562 C -39.347656 311.601562 -53.78125 326.03125 -53.78125 343.828125 C -53.78125 361.621094 -39.347656 376.050781 -21.554688 376.050781 C -16.773438 376.050781 -12.242188 375 -8.171875 373.136719 C -1.566406 383.589844 10.082031 390.550781 23.355469 390.550781 C 35.136719 390.550781 45.640625 385.074219 52.46875 376.539062 C 56.1875 380.226562 61.292969 382.5 66.941406 382.5 C 77.378906 382.5 85.980469 374.726562 87.308594 364.652344 C 90.695312 366.347656 94.515625 367.320312 98.5625 367.320312 C 112.429688 367.320312 123.667969 356.078125 123.667969 342.210938 C 123.667969 328.34375 112.429688 317.101562 98.5625 317.101562 Z M 98.5625 317.101562 " fill-opacity="1" fill-rule="nonzero"/></g><g clip-path="url(#d0735c8388)"><path fill="#104d7e" d="M 101.59375 323.820312 C 98.277344 323.820312 95.128906 324.46875 92.226562 325.640625 C 89.480469 314.894531 79.722656 306.945312 68.117188 306.945312 C 63.136719 306.945312 58.492188 308.414062 54.601562 310.9375 C 50.152344 298.683594 38.390625 289.914062 24.585938 289.914062 C 7.570312 289.914062 -6.339844 303.222656 -7.289062 320.007812 C -10.464844 318.941406 -13.859375 318.367188 -17.398438 318.367188 C -35.039062 318.367188 -49.339844 332.667969 -49.339844 350.296875 C -49.339844 367.925781 -35.039062 382.222656 -17.410156 382.222656 C -12.675781 382.222656 -8.1875 381.183594 -4.152344 379.335938 C 2.390625 389.691406 13.929688 396.585938 27.085938 396.585938 C 38.753906 396.585938 49.164062 391.160156 55.929688 382.703125 C 59.609375 386.359375 64.671875 388.609375 70.265625 388.609375 C 80.609375 388.609375 89.128906 380.910156 90.445312 370.929688 C 93.800781 372.609375 97.585938 373.570312 101.59375 373.570312 C 115.332031 373.570312 126.46875 362.433594 126.46875 348.695312 C 126.46875 334.957031 115.332031 323.820312 101.59375 323.820312 Z M 101.59375 323.820312 " fill-opacity="1" fill-rule="nonzero"/></g><g clip-path="url(#aac74aa1f7)"><g clip-path="url(#5d347aef5d)"><g clip-path="url(#20fd41791d)"><path fill="#104d7e" d="M 196.160156 329.179688 C 192.8125 329.269531 189.65625 330.015625 186.757812 331.277344 C 183.691406 320.511719 173.625 312.761719 161.914062 313.085938 C 156.886719 313.222656 152.242188 314.835938 148.386719 317.492188 C 143.558594 305.25 131.445312 296.730469 117.519531 297.113281 C 100.347656 297.589844 86.6875 311.40625 86.195312 328.363281 C 82.964844 327.375 79.523438 326.894531 75.949219 326.992188 C 58.152344 327.484375 44.125 342.308594 44.613281 360.09375 C 45.105469 377.882812 59.929688 391.910156 77.714844 391.417969 C 82.496094 391.285156 86.996094 390.113281 91.011719 388.136719 C 97.902344 398.402344 109.738281 405.039062 123.011719 404.671875 C 134.785156 404.347656 145.136719 398.582031 151.726562 389.863281 C 155.542969 393.449219 160.710938 395.578125 166.355469 395.421875 C 176.792969 395.132812 185.175781 387.125 186.222656 377.019531 C 189.65625 378.621094 193.503906 379.484375 197.546875 379.375 C 211.40625 378.992188 222.335938 367.445312 221.953125 353.582031 C 221.570312 339.722656 210.023438 328.796875 196.160156 329.179688 Z M 196.160156 329.179688 " fill-opacity="1" fill-rule="nonzero"/></g></g></g><g clip-path="url(#deee4df34e)"><path fill="#104d7e" d="M 332.429688 323.144531 C 329.082031 323.144531 325.902344 323.800781 322.972656 324.980469 C 320.203125 314.136719 310.355469 306.113281 298.640625 306.113281 C 293.613281 306.113281 288.921875 307.59375 284.996094 310.144531 C 280.507812 297.773438 268.636719 288.921875 254.703125 288.921875 C 237.527344 288.921875 223.488281 302.355469 222.527344 319.296875 C 219.324219 318.21875 215.898438 317.640625 212.324219 317.640625 C 194.519531 317.640625 180.085938 332.074219 180.085938 349.867188 C 180.085938 367.660156 194.519531 382.09375 212.3125 382.09375 C 217.09375 382.09375 221.625 381.042969 225.695312 379.175781 C 232.300781 389.628906 243.945312 396.589844 257.222656 396.589844 C 269.003906 396.589844 279.507812 391.113281 286.335938 382.578125 C 290.054688 386.269531 295.160156 388.539062 300.808594 388.539062 C 311.246094 388.539062 319.847656 380.765625 321.175781 370.695312 C 324.5625 372.386719 328.382812 373.359375 332.429688 373.359375 C 346.296875 373.359375 357.535156 362.117188 357.535156 348.25 C 357.535156 334.382812 346.296875 323.144531 332.429688 323.144531 Z M 332.429688 323.144531 " fill-opacity="1" fill-rule="nonzero"/></g><g clip-path="url(#0acd3d7c1d)"><path fill="#104d7e" d="M 418.339844 326.203125 C 415.152344 326.203125 412.128906 326.828125 409.34375 327.953125 C 406.707031 317.632812 397.335938 310 386.191406 310 C 381.40625 310 376.945312 311.410156 373.210938 313.835938 C 368.9375 302.066406 357.640625 293.644531 344.386719 293.644531 C 328.042969 293.644531 314.6875 306.425781 313.773438 322.542969 C 310.726562 321.519531 307.464844 320.96875 304.066406 320.96875 C 287.125 320.96875 273.394531 334.699219 273.394531 351.628906 C 273.394531 368.558594 287.125 382.289062 304.054688 382.289062 C 308.601562 382.289062 312.910156 381.289062 316.785156 379.515625 C 323.070312 389.460938 334.152344 396.082031 346.785156 396.082031 C 357.992188 396.082031 367.988281 390.875 374.484375 382.753906 C 378.019531 386.261719 382.878906 388.425781 388.253906 388.425781 C 398.183594 388.425781 406.367188 381.027344 407.628906 371.445312 C 410.855469 373.058594 414.488281 373.980469 418.339844 373.980469 C 431.53125 373.980469 442.226562 363.285156 442.226562 350.09375 C 442.226562 336.898438 431.53125 326.203125 418.339844 326.203125 Z M 418.339844 326.203125 " fill-opacity="1" fill-rule="nonzero"/></g><g clip-path="url(#096ea9603b)"><path fill="#104d7e" d="M 332.429688 330.925781 C 329.082031 330.925781 325.902344 331.582031 322.972656 332.765625 C 320.203125 321.917969 310.355469 313.894531 298.640625 313.894531 C 293.613281 313.894531 288.921875 315.378906 284.996094 317.925781 C 280.507812 305.554688 268.636719 296.707031 254.703125 296.707031 C 237.527344 296.707031 223.488281 310.140625 222.527344 327.078125 C 219.324219 326.003906 215.898438 325.425781 212.324219 325.425781 C 194.519531 325.425781 180.085938 339.855469 180.085938 357.648438 C 180.085938 375.441406 194.519531 389.875 212.3125 389.875 C 217.09375 389.875 221.625 388.824219 225.695312 386.960938 C 232.300781 397.414062 243.945312 404.371094 257.222656 404.371094 C 269.003906 404.371094 279.507812 398.898438 286.335938 390.359375 C 290.054688 394.050781 295.160156 396.324219 300.808594 396.324219 C 311.246094 396.324219 319.847656 388.546875 321.175781 378.476562 C 324.5625 380.171875 328.382812 381.140625 332.429688 381.140625 C 346.296875 381.140625 357.535156 369.902344 357.535156 356.035156 C 357.535156 342.167969 346.296875 330.925781 332.429688 330.925781 Z M 332.429688 330.925781 " fill-opacity="1" fill-rule="nonzero"/></g><g clip-path="url(#29122ff950)"><path fill="#104d7e" d="M 0.0078125 343.042969 L 383.230469 343.042969 L 383.230469 408.667969 L 0.0078125 408.667969 Z M 0.0078125 343.042969 " fill-opacity="1" fill-rule="nonzero"/></g></svg>